<?xml version="1.0" encoding="iso-8859-1"?>
<!-- Generator: Adobe Illustrator 19.0.0, SVG Export Plug-In . SVG Version: 6.00 Build 0)  -->
<svg version="1.1" id="Layer_1" xmlns="http://www.w3.org/2000/svg" xmlns:xlink="http://www.w3.org/1999/xlink" x="0px" y="0px"
	 viewBox="0 0 512 512" style="enable-background:new 0 0 512 512;" xml:space="preserve">
<path style="fill:#34495E;" d="M512,256c0,141.391-114.616,256-256,256C114.614,512,0,397.391,0,256C0,114.616,114.614,0,256,0
	C397.384,0,512,114.616,512,256z"/>
<path style="fill:#203549;" d="M508.977,295.393L372.915,159.309h-54.129l-22.861-22.828c-0.189-0.2-0.379-0.397-0.571-0.596
	c-0.044-0.044-0.077-0.084-0.12-0.125l-2.56-2.563c-0.218-0.2-0.461-0.376-0.686-0.573c-0.937-0.84-1.894-1.654-2.89-2.427
	c-0.376-0.3-0.783-0.566-1.167-0.85c-0.886-0.645-1.774-1.285-2.698-1.879c-0.451-0.287-0.919-0.556-1.38-0.829
	c-0.888-0.54-1.787-1.065-2.716-1.551c-0.504-0.264-1.021-0.512-1.539-0.76c-0.909-0.443-1.83-0.863-2.767-1.257
	c-0.548-0.228-1.103-0.451-1.656-0.668c-0.94-0.351-1.889-0.678-2.854-0.983c-0.581-0.182-1.155-0.366-1.738-0.532
	c-0.988-0.276-1.987-0.509-2.995-0.73c-0.581-0.125-1.155-0.269-1.746-0.374c-1.098-0.202-2.207-0.351-3.328-0.481
	c-0.515-0.059-1.019-0.156-1.541-0.197c-1.646-0.151-3.302-0.241-4.984-0.241c-25.196,0-46.336,17.193-52.444,40.448h-17.92H139.08
	v233.83l118.825,118.81C385.034,511.02,490.122,417.464,508.977,295.393z"/>
<rect x="139.085" y="159.309" style="fill:#FFFFFF;" width="233.83" height="233.83"/>
<rect x="154.957" y="175.232" style="fill:#0684BA;" width="202.038" height="201.961"/>
<path style="fill:#FFFFFF;" d="M356.989,225.715v-9.354H252.818h-4.664h-45.939v-41.124h-9.352v41.124h-37.911v9.354h37.911v73.418
	h-37.911v9.354h88.52v68.708h9.347v-29.427h104.172v-9.352h-31.16V267.1h31.16v-9.352h-31.16h-4.672h-68.339v-32.033H356.989z
	 M243.471,299.136h-41.257v-73.421h41.257L243.471,299.136L243.471,299.136z M316.475,267.1v71.316h-63.657V308.49v-4.682V267.1
	H316.475z"/>
<g>
	<rect x="154.957" y="308.48" style="fill:#C1D354;" width="88.52" height="68.708"/>
	<rect x="252.826" y="347.776" style="fill:#C1D354;" width="104.172" height="29.427"/>
	<rect x="202.214" y="225.715" style="fill:#C1D354;" width="41.267" height="73.418"/>
</g>
<path style="fill:#FFFFFF;" d="M293.658,173.015c0,20.815-16.873,37.693-37.678,37.693c-20.823,0-37.701-16.876-37.701-37.693
	c0-20.81,16.876-37.693,37.701-37.693C276.785,135.322,293.658,152.205,293.658,173.015z"/>
<path style="fill:#FF8E31;" d="M255.98,118.861c-29.919,0-54.162,24.236-54.162,54.154c0,21.389,12.403,39.877,30.41,48.684
	l23.752,40.497l23.731-40.497c18.007-8.806,30.41-27.295,30.41-48.684C310.121,143.096,285.878,118.861,255.98,118.861z
	 M255.98,210.708c-20.823,0-37.701-16.876-37.701-37.693c0-20.81,16.876-37.693,37.701-37.693c20.805,0,37.678,16.883,37.678,37.693
	C293.658,193.83,276.785,210.708,255.98,210.708z"/>
<g>
</g>
<g>
</g>
<g>
</g>
<g>
</g>
<g>
</g>
<g>
</g>
<g>
</g>
<g>
</g>
<g>
</g>
<g>
</g>
<g>
</g>
<g>
</g>
<g>
</g>
<g>
</g>
<g>
</g>
</svg>
